# xmcd
# Track frame offsets:
# 183
# 9770
# 24405
# 38443
# 54528
# 75130
# 92600
# 103428
# 117905
# 132063
# 145158
# 157770
# 182188
# 195765
# 215065
# 232058
# 253155
#
# Disc length: 3557 seconds
# Revision: 2
# Processed by: cddbd v1.5.2PL0 Copyright (c) Steve Scherf et al.
# Submitted via: VisiTrax 2.9.10.228 - For more info visit www.synapsa.com
#
DISCID=d00de311
DTITLE=Mayall, John - John Mayall - The Collection
DYEAR=1986
DGENRE=Blues
TTITLE0=Key To Love
TTITLE1=Hideaway
TTITLE2=Ramblin' On My Mind
TTITLE3=All Your Love
TTITLE4=They Call It Stormy Monday
TTITLE5=Hoochie Coochie Man
TTITLE6=Crawling Up A Hill
TTITLE7=Marsha's Mood
TTITLE8=A Hard Road
TTITLE9=The Super-Natural
TTITLE10=You Don't Love Me
TTITLE11=Suspicions (Part II)
TTITLE12=Picture On The Wall
TTITLE13=The Death Of J.B. Lenoir
TTITLE14=Sandy
TTITLE15=The Bear
TTITLE16=Walking On Sunset
EXTD=
EXTT0=
EXTT1=
EXTT2=
EXTT3=
EXTT4=
EXTT5=
EXTT6=
EXTT7=
EXTT8=
EXTT9=
EXTT10=
EXTT11=
EXTT12=
EXTT13=
EXTT14=
EXTT15=
EXTT16=
PLAYORDER=
